{
  "accessors": [
    {
      "bufferView": 2,
      "componentType": 5126,
      "count": 49472,
      "max": [
        1.1251641511917114,
        1.5605546236038208,
        0.6554015874862671
      ],
      "min": [
        -1.1826978921890259,
        0.507140040397644,
        -5.726469680666924e-07
      ],
      "type": "VEC3"
    },
    {
      "bufferView": 2,
      "byteOffset": 593664,
      "componentType": 5126,
      "count": 49472,
      "max": [
        0.9999505281448364,
        1.0,
        1.0
      ],
      "min": [
        -0.9999504685401917,
        -0.9999792575836182,
        -0.9999265670776367
      ],
      "type": "VEC3"
    },
    {
      "bufferView": 1,
      "componentType": 5126,
      "count": 49472,
      "max": [
        0.710886538028717,
        0.568414032459259
      ],
      "min": [
        0.012306071817874908,
        0.0027317404747009277
      ],
      "type": "VEC2"
    },
    {
      "bufferView": 1,
      "byteOffset": 395776,
      "componentType": 5126,
      "count": 49472,
      "max": [
        0.710886538028717,
        0.568414032459259
      ],
      "min": [
        0.012306071817874908,
        0.0027317404747009277
      ],
      "type": "VEC2"
    },
    {
      "bufferView": 1,
      "byteOffset": 791552,
      "componentType": 5126,
      "count": 49472,
      "max": [
        0.710886538028717,
        0.568414032459259
      ],
      "min": [
        0.012306071817874908,
        0.0027317404747009277
      ],
      "type": "VEC2"
    },
    {
      "bufferView": 1,
      "byteOffset": 1187328,
      "componentType": 5126,
      "count": 49472,
      "max": [
        0.710886538028717,
        0.568414032459259
      ],
      "min": [
        0.012306071817874908,
        0.0027317404747009277
      ],
      "type": "VEC2"
    },
    {
      "bufferView": 0,
      "componentType": 5125,
      "count": 288768,
      "type": "SCALAR"
    },
    {
      "bufferView": 2,
      "byteOffset": 1187328,
      "componentType": 5126,
      "count": 3845,
      "max": [
        -0.8306031227111816,
        0.35139015316963196,
        0.2754395008087158
      ],
      "min": [
        -1.4020417928695679,
        -0.22004836797714233,
        0.0008913576602935791
      ],
      "type": "VEC3"
    },
    {
      "bufferView": 2,
      "byteOffset": 1233468,
      "componentType": 5126,
      "count": 3845,
      "max": [
        1.0,
        1.0,
        1.0
      ],
      "min": [
        -1.0,
        -1.0,
        -0.9943847060203552
      ],
      "type": "VEC3"
    },
    {
      "bufferView": 1,
      "byteOffset": 1583104,
      "componentType": 5126,
      "count": 3845,
      "max": [
        0.9928560853004456,
        0.4767824113368988
      ],
      "min": [
        0.7141993641853333,
        0.2742193043231964
      ],
      "type": "VEC2"
    },
    {
      "bufferView": 1,
      "byteOffset": 1613864,
      "componentType": 5126,
      "count": 3845,
      "max": [
        0.9928560853004456,
        0.4767824113368988
      ],
      "min": [
        0.7141993641853333,
        0.2742193043231964
      ],
      "type": "VEC2"
    },
    {
      "bufferView": 1,
      "byteOffset": 1644624,
      "componentType": 5126,
      "count": 3845,
      "max": [
        0.9928560853004456,
        0.4767824113368988
      ],
      "min": [
        0.7141993641853333,
        0.2742193043231964
      ],
      "type": "VEC2"
    },
    {
      "bufferView": 1,
      "byteOffset": 1675384,
      "componentType": 5126,
      "count": 3845,
      "max": [
        0.9928560853004456,
        0.4767824113368988
      ],
      "min": [
        0.7141993641853333,
        0.2742193043231964
      ],
      "type": "VEC2"
    },
    {
      "bufferView": 0,
      "byteOffset": 1155072,
      "componentType": 5125,
      "count": 20928,
      "type": "SCALAR"
    },
    {
      "bufferView": 2,
      "byteOffset": 1279608,
      "componentType": 5126,
      "count": 46663,
      "max": [
        1.5265425443649292,
        0.36481255292892456,
        0.6585493087768555
      ],
      "min": [
        0.7965289950370789,
        -0.48578131198883057,
        -1.1920928955078125e-07
      ],
      "type": "VEC3"
    },
    {
      "bufferView": 2,
      "byteOffset": 1839564,
      "componentType": 5126,
      "count": 46663,
      "max": [
        1.0,
        1.0,
        1.0
      ],
      "min": [
        -1.0,
        -1.0,
        -0.999999463558197
      ],
      "type": "VEC3"
    },
    {
      "bufferView": 1,
      "byteOffset": 1706144,
      "componentType": 5126,
      "count": 46663,
      "max": [
        0.9982061386108398,
        0.9371960759162903
      ],
      "min": [
        0.5854845643043518,
        0.4292924404144287
      ],
      "type": "VEC2"
    },
    {
      "bufferView": 1,
      "byteOffset": 2079448,
      "componentType": 5126,
      "count": 46663,
      "max": [
        0.9982061386108398,
        0.9371960759162903
      ],
      "min": [
        0.5854845643043518,
        0.4292924404144287
      ],
      "type": "VEC2"
    },
    {
      "bufferView": 1,
      "byteOffset": 2452752,
      "componentType": 5126,
      "count": 46663,
      "max": [
        0.9982061386108398,
        0.9371960759162903
      ],
      "min": [
        0.5854845643043518,
        0.4292924404144287
      ],
      "type": "VEC2"
    },
    {
      "bufferView": 1,
      "byteOffset": 2826056,
      "componentType": 5126,
      "count": 46663,
      "max": [
        0.9982061386108398,
        0.9371960759162903
      ],
      "min": [
        0.5854845643043518,
        0.4292924404144287
      ],
      "type": "VEC2"
    },
    {
      "bufferView": 0,
      "byteOffset": 1238784,
      "componentType": 5125,
      "count": 270930,
      "type": "SCALAR"
    },
    {
      "bufferView": 2,
      "byteOffset": 2399520,
      "componentType": 5126,
      "count": 3845,
      "max": [
        -0.25524288415908813,
        -0.4157569110393524,
        0.2754395008087158
      ],
      "min": [
        -0.8266815543174744,
        -0.9871954321861267,
        0.0008913576602935791
      ],
      "type": "VEC3"
    },
    {
      "bufferView": 2,
      "byteOffset": 2445660,
      "componentType": 5126,
      "count": 3845,
      "max": [
        1.0,
        1.0,
        1.0
      ],
      "min": [
        -1.0,
        -1.0,
        -0.9943848252296448
      ],
      "type": "VEC3"
    },
    {
      "bufferView": 1,
      "byteOffset": 3199360,
      "componentType": 5126,
      "count": 3845,
      "max": [
        0.9929677844047546,
        0.22900958359241486
      ],
      "min": [
        0.7143108248710632,
        0.02643592283129692
      ],
      "type": "VEC2"
    },
    {
      "bufferView": 1,
      "byteOffset": 3230120,
      "componentType": 5126,
      "count": 3845,
      "max": [
        0.9929677844047546,
        0.22900958359241486
      ],
      "min": [
        0.7143108248710632,
        0.02643592283129692
      ],
      "type": "VEC2"
    },
    {
      "bufferView": 1,
      "byteOffset": 3260880,
      "componentType": 5126,
      "count": 3845,
      "max": [
        0.9929677844047546,
        0.22900958359241486
      ],
      "min": [
        0.7143108248710632,
        0.02643592283129692
      ],
      "type": "VEC2"
    },
    {
      "bufferView": 1,
      "byteOffset": 3291640,
      "componentType": 5126,
      "count": 3845,
      "max": [
        0.9929677844047546,
        0.22900958359241486
      ],
      "min": [
        0.7143108248710632,
        0.02643592283129692
      ],
      "type": "VEC2"
    },
    {
      "bufferView": 0,
      "byteOffset": 2322504,
      "componentType": 5125,
      "count": 20928,
      "type": "SCALAR"
    },
    {
      "bufferView": 2,
      "byteOffset": 2491800,
      "componentType": 5126,
      "count": 260,
      "max": [
        0.41280174255371094,
        0.15850836038589478,
        0.28916287422180176
      ],
      "min": [
        -0.41396039724349976,
        -0.16796541213989258,
        0.00024168193340301514
      ],
      "type": "VEC3"
    },
    {
      "bufferView": 2,
      "byteOffset": 2494920,
      "componentType": 5126,
      "count": 260,
      "max": [
        1.0,
        0.8778834342956543,
        1.0
      ],
      "min": [
        -1.0,
        -0.8778833746910095,
        -1.0
      ],
      "type": "VEC3"
    },
    {
      "bufferView": 3,
      "componentType": 5126,
      "count": 260,
      "max": [
        5.808580681332387e-05,
        1.0,
        3.442869171976781e-07,
        1.0
      ],
      "min": [
        -5.808579226140864e-05,
        -1.0,
        -1.0,
        1.0
      ],
      "type": "VEC4"
    },
    {
      "bufferView": 1,
      "byteOffset": 3322400,
      "componentType": 5126,
      "count": 260,
      "max": [
        0.5686574578285217,
        0.7997332811355591
      ],
      "min": [
        0.13552527129650116,
        0.7412546873092651
      ],
      "type": "VEC2"
    },
    {
      "bufferView": 1,
      "byteOffset": 3324480,
      "componentType": 5126,
      "count": 260,
      "max": [
        0.5686574578285217,
        0.7997332811355591
      ],
      "min": [
        0.13552527129650116,
        0.7412546873092651
      ],
      "type": "VEC2"
    },
    {
      "bufferView": 1,
      "byteOffset": 3326560,
      "componentType": 5126,
      "count": 260,
      "max": [
        0.5686574578285217,
        0.7997332811355591
      ],
      "min": [
        0.13552527129650116,
        0.7412546873092651
      ],
      "type": "VEC2"
    },
    {
      "bufferView": 1,
      "byteOffset": 3328640,
      "componentType": 5126,
      "count": 260,
      "max": [
        0.5686574578285217,
        0.7997332811355591
      ],
      "min": [
        0.13552527129650116,
        0.7412546873092651
      ],
      "type": "VEC2"
    },
    {
      "bufferView": 0,
      "byteOffset": 2406216,
      "componentType": 5125,
      "count": 696,
      "type": "SCALAR"
    },
    {
      "bufferView": 2,
      "byteOffset": 2498040,
      "componentType": 5126,
      "count": 1322,
      "max": [
        0.5525780916213989,
        0.2515515983104706,
        0.30422642827033997
      ],
      "min": [
        -0.5525780916213989,
        -0.2515515983104706,
        0.2892264425754547
      ],
      "type": "VEC3"
    },
    {
      "bufferView": 2,
      "byteOffset": 2513904,
      "componentType": 5126,
      "count": 1322,
      "max": [
        1.0,
        1.0,
        1.0
      ],
      "min": [
        -1.0,
        -1.0,
        -1.0
      ],
      "type": "VEC3"
    },
    {
      "bufferView": 3,
      "byteOffset": 4160,
      "componentType": 5126,
      "count": 1322,
      "max": [
        1.0,
        1.0,
        1.4066653193367529e-06,
        1.0
      ],
      "min": [
        -1.0,
        -1.0,
        -3.905949142790632e-06,
        1.0
      ],
      "type": "VEC4"
    },
    {
      "bufferView": 1,
      "byteOffset": 3330720,
      "componentType": 5126,
      "count": 1322,
      "max": [
        0.5666629076004028,
        0.9782114028930664
      ],
      "min": [
        0.14012455940246582,
        0.5561984777450562
      ],
      "type": "VEC2"
    },
    {
      "bufferView": 1,
      "byteOffset": 3341296,
      "componentType": 5126,
      "count": 1322,
      "max": [
        0.5666629076004028,
        0.9782114028930664
      ],
      "min": [
        0.14012455940246582,
        0.5561984777450562
      ],
      "type": "VEC2"
    },
    {
      "bufferView": 1,
      "byteOffset": 3351872,
      "componentType": 5126,
      "count": 1322,
      "max": [
        0.5666629076004028,
        0.9782114028930664
      ],
      "min": [
        0.14012455940246582,
        0.5561984777450562
      ],
      "type": "VEC2"
    },
    {
      "bufferView": 1,
      "byteOffset": 3362448,
      "componentType": 5126,
      "count": 1322,
      "max": [
        0.5666629076004028,
        0.9782114028930664
      ],
      "min": [
        0.14012455940246582,
        0.5561984777450562
      ],
      "type": "VEC2"
    },
    {
      "bufferView": 0,
      "byteOffset": 2409000,
      "componentType": 5125,
      "count": 6720,
      "type": "SCALAR"
    }
  ],
  "asset": {
    "extras": {
      "author": "nghihuutr (https://sketchfab.com/nghihuutr)",
      "license": "CC-BY-4.0 (http://creativecommons.org/licenses/by/4.0/)",
      "source": "https://sketchfab.com/3d-models/curved-sofa-set-white-ff69c42b0ec24dfcb1ff05a4f0d1f3a8",
      "title": "Curved Sofa Set - White"
    },
    "generator": "Sketchfab-16.16.0",
    "version": "2.0"
  },
  "bufferViews": [
    {
      "buffer": 0,
      "byteLength": 2435880,
      "name": "floatBufferViews",
      "target": 34963
    },
    {
      "buffer": 0,
      "byteLength": 3373024,
      "byteOffset": 2435880,
      "byteStride": 8,
      "name": "floatBufferViews",
      "target": 34962
    },
    {
      "buffer": 0,
      "byteLength": 2529768,
      "byteOffset": 5808904,
      "byteStride": 12,
      "name": "floatBufferViews",
      "target": 34962
    },
    {
      "buffer": 0,
      "byteLength": 25312,
      "byteOffset": 8338672,
      "byteStride": 16,
      "name": "floatBufferViews",
      "target": 34962
    }
  ],
  "buffers": [
    {
      "byteLength": 8363984,
      "uri": "scene.bin"
    }
  ],
  "images": [
    {
      "uri": "textures/Couch_baseColor.png"
    },
    {
      "uri": "textures/Couch_metallicRoughness.png"
    },
    {
      "uri": "textures/Couch_emissive.png"
    },
    {
      "uri": "textures/plastic_baseColor.png"
    },
    {
      "uri": "textures/plastic_metallicRoughness.png"
    },
    {
      "uri": "textures/plastic_emissive.png"
    },
    {
      "uri": "textures/plastic_normal.png"
    },
    {
      "uri": "textures/marble_baseColor.png"
    },
    {
      "uri": "textures/marble_metallicRoughness.png"
    },
    {
      "uri": "textures/marble_emissive.png"
    },
    {
      "uri": "textures/marble_normal.png"
    }
  ],
  "materials": [
    {
      "doubleSided": true,
      "emissiveFactor": [
        1.0,
        1.0,
        1.0
      ],
      "emissiveTexture": {
        "index": 2
      },
      "name": "Couch",
      "pbrMetallicRoughness": {
        "baseColorTexture": {
          "index": 0
        },
        "metallicRoughnessTexture": {
          "index": 1
        }
      }
    },
    {
      "alphaMode": "BLEND",
      "doubleSided": true,
      "emissiveFactor": [
        1.0,
        1.0,
        1.0
      ],
      "emissiveTexture": {
        "index": 5
      },
      "name": "plastic",
      "normalTexture": {
        "index": 6
      },
      "pbrMetallicRoughness": {
        "baseColorTexture": {
          "index": 3
        },
        "metallicRoughnessTexture": {
          "index": 4
        }
      }
    },
    {
      "alphaMode": "BLEND",
      "doubleSided": true,
      "emissiveFactor": [
        1.0,
        1.0,
        1.0
      ],
      "emissiveTexture": {
        "index": 9
      },
      "name": "marble",
      "normalTexture": {
        "index": 10
      },
      "pbrMetallicRoughness": {
        "baseColorTexture": {
          "index": 7
        },
        "metallicRoughnessTexture": {
          "index": 8
        }
      }
    }
  ],
  "meshes": [
    {
      "name": "LagreCouch_Couch_0",
      "primitives": [
        {
          "attributes": {
            "NORMAL": 1,
            "POSITION": 0,
            "TEXCOORD_0": 2,
            "TEXCOORD_1": 3,
            "TEXCOORD_2": 4,
            "TEXCOORD_3": 5
          },
          "indices": 6,
          "material": 0,
          "mode": 4
        }
      ]
    },
    {
      "name": "Couch-2_Couch_0",
      "primitives": [
        {
          "attributes": {
            "NORMAL": 8,
            "POSITION": 7,
            "TEXCOORD_0": 9,
            "TEXCOORD_1": 10,
            "TEXCOORD_2": 11,
            "TEXCOORD_3": 12
          },
          "indices": 13,
          "material": 0,
          "mode": 4
        }
      ]
    },
    {
      "name": "Couch-1_Couch_0",
      "primitives": [
        {
          "attributes": {
            "NORMAL": 15,
            "POSITION": 14,
            "TEXCOORD_0": 16,
            "TEXCOORD_1": 17,
            "TEXCOORD_2": 18,
            "TEXCOORD_3": 19
          },
          "indices": 20,
          "material": 0,
          "mode": 4
        }
      ]
    },
    {
      "name": "Couch-3_Couch_0",
      "primitives": [
        {
          "attributes": {
            "NORMAL": 22,
            "POSITION": 21,
            "TEXCOORD_0": 23,
            "TEXCOORD_1": 24,
            "TEXCOORD_2": 25,
            "TEXCOORD_3": 26
          },
          "indices": 27,
          "material": 0,
          "mode": 4
        }
      ]
    },
    {
      "name": "table_plastic_0",
      "primitives": [
        {
          "attributes": {
            "NORMAL": 29,
            "POSITION": 28,
            "TANGENT": 30,
            "TEXCOORD_0": 31,
            "TEXCOORD_1": 32,
            "TEXCOORD_2": 33,
            "TEXCOORD_3": 34
          },
          "indices": 35,
          "material": 1,
          "mode": 4
        }
      ]
    },
    {
      "name": "table_marble_0",
      "primitives": [
        {
          "attributes": {
            "NORMAL": 37,
            "POSITION": 36,
            "TANGENT": 38,
            "TEXCOORD_0": 39,
            "TEXCOORD_1": 40,
            "TEXCOORD_2": 41,
            "TEXCOORD_3": 42
          },
          "indices": 43,
          "material": 2,
          "mode": 4
        }
      ]
    }
  ],
  "nodes": [
    {
      "children": [
        1
      ],
      "matrix": [
        1.0,
        0.0,
        0.0,
        0.0,
        0.0,
        2.220446049250313e-16,
        -1.0,
        0.0,
        0.0,
        1.0,
        2.220446049250313e-16,
        0.0,
        0.0,
        0.0,
        0.0,
        1.0
      ],
      "name": "Sketchfab_model"
    },
    {
      "children": [
        2
      ],
      "matrix": [
        0.009999999776482582,
        0.0,
        0.0,
        0.0,
        0.0,
        0.0,
        0.009999999776482582,
        0.0,
        0.0,
        -0.009999999776482582,
        0.0,
        0.0,
        0.0,
        0.0,
        0.0,
        1.0
      ],
      "name": "de123cc0eb3240e3b9cc04d0607a594e.fbx"
    },
    {
      "children": [
        3,
        5,
        7,
        9,
        11
      ],
      "name": "RootNode"
    },
    {
      "children": [
        4
      ],
      "matrix": [
        100.0,
        0.0,
        0.0,
        0.0,
        0.0,
        -1.629206793918314e-05,
        -99.99999999999868,
        0.0,
        0.0,
        99.99999999999868,
        -1.629206793918314e-05,
        0.0,
        0.0,
        0.0,
        0.0,
        1.0
      ],
      "name": "LagreCouch"
    },
    {
      "mesh": 0,
      "name": "LagreCouch_Couch_0"
    },
    {
      "children": [
        6
      ],
      "matrix": [
        100.0,
        0.0,
        0.0,
        0.0,
        0.0,
        -1.629206793918314e-05,
        -99.99999999999868,
        0.0,
        0.0,
        99.99999999999868,
        -1.629206793918314e-05,
        0.0,
        0.0,
        0.0,
        0.0,
        1.0
      ],
      "name": "Couch-2"
    },
    {
      "mesh": 1,
      "name": "Couch-2_Couch_0"
    },
    {
      "children": [
        8
      ],
      "matrix": [
        100.0,
        0.0,
        0.0,
        0.0,
        0.0,
        -1.629206793918314e-05,
        -99.99999999999868,
        0.0,
        0.0,
        99.99999999999868,
        -1.629206793918314e-05,
        0.0,
        0.0,
        0.0,
        0.0,
        1.0
      ],
      "name": "Couch-1"
    },
    {
      "mesh": 2,
      "name": "Couch-1_Couch_0"
    },
    {
      "children": [
        10
      ],
      "matrix": [
        100.0,
        0.0,
        0.0,
        0.0,
        0.0,
        -1.629206793918314e-05,
        -99.99999999999868,
        0.0,
        0.0,
        99.99999999999868,
        -1.629206793918314e-05,
        0.0,
        0.0,
        0.0,
        0.0,
        1.0
      ],
      "name": "Couch-3"
    },
    {
      "mesh": 3,
      "name": "Couch-3_Couch_0"
    },
    {
      "children": [
        12,
        13
      ],
      "matrix": [
        100.0,
        0.0,
        0.0,
        0.0,
        0.0,
        -1.629206793918314e-05,
        -99.99999999999868,
        0.0,
        0.0,
        99.99999999999868,
        -1.629206793918314e-05,
        0.0,
        0.0,
        0.0,
        0.0,
        1.0
      ],
      "name": "table"
    },
    {
      "mesh": 4,
      "name": "table_plastic_0"
    },
    {
      "mesh": 5,
      "name": "table_marble_0"
    }
  ],
  "samplers": [
    {
      "magFilter": 9729,
      "minFilter": 9987,
      "wrapS": 10497,
      "wrapT": 10497
    }
  ],
  "scene": 0,
  "scenes": [
    {
      "name": "Sketchfab_Scene",
      "nodes": [
        0
      ]
    }
  ],
  "textures": [
    {
      "sampler": 0,
      "source": 0
    },
    {
      "sampler": 0,
      "source": 1
    },
    {
      "sampler": 0,
      "source": 2
    },
    {
      "sampler": 0,
      "source": 3
    },
    {
      "sampler": 0,
      "source": 4
    },
    {
      "sampler": 0,
      "source": 5
    },
    {
      "sampler": 0,
      "source": 6
    },
    {
      "sampler": 0,
      "source": 7
    },
    {
      "sampler": 0,
      "source": 8
    },
    {
      "sampler": 0,
      "source": 9
    },
    {
      "sampler": 0,
      "source": 10
    }
  ]
}
